<?xml version="1.0" encoding="UTF-8"?>
<svg version="1.1" xmlns="http://www.w3.org/2000/svg" width="512" height="512">
<path d="M0 0 C1.45768799 -0.01248528 1.45768799 -0.01248528 2.94482422 -0.02522278 C6.14620014 -0.04924415 9.34737172 -0.05808748 12.54882812 -0.06469727 C14.78975481 -0.07367296 17.03068092 -0.08279497 19.27160645 -0.09205627 C23.96884614 -0.10852993 28.66601474 -0.11624284 33.36328125 -0.11914062 C39.34692705 -0.12450776 45.32989245 -0.16212648 51.31334686 -0.20788479 C55.94456339 -0.23781435 60.57561966 -0.24486771 65.20692444 -0.24586678 C67.41068115 -0.2500413 69.61443958 -0.26236261 71.81809998 -0.28338432 C89.21223741 -0.43604274 103.08828365 0.93488352 117.08007812 12.30639648 C117.9128125 12.93288086 118.74554688 13.55936523 119.60351562 14.20483398 C128.78871476 21.99921432 136.19833463 35.55860308 137.29373169 47.66836548 C137.40545387 50.39102242 137.4609468 53.10899579 137.49414062 55.83374023 C137.52318985 57.31711632 137.52318985 57.31711632 137.55282593 58.83045959 C137.61228434 61.968186 137.65887169 65.10594976 137.70507812 68.24389648 C137.74328897 70.3799796 137.78234248 72.51604781 137.82226562 74.65209961 C137.91795785 79.87006568 138.00310268 85.08812254 138.08007812 90.30639648 C138.9540625 89.72631836 138.9540625 89.72631836 139.84570312 89.13452148 C140.66554688 88.61374023 141.48539062 88.09295898 142.33007812 87.55639648 C143.11898438 87.04592773 143.90789062 86.53545898 144.72070312 86.00952148 C154.37261703 81.1162256 163.17470429 79.70322575 173.91992188 79.77514648 C175.20387344 79.77131958 176.48782501 79.76749268 177.8106842 79.7635498 C180.50932411 79.75770413 183.20742896 79.76605362 185.90600586 79.78491211 C189.32611544 79.80767693 192.74496703 79.79456454 196.16503048 79.77062225 C199.47925547 79.7525014 202.79316144 79.76527546 206.10742188 79.77514648 C207.31510727 79.76704956 208.52279266 79.75895264 209.76707458 79.75061035 C222.91780035 79.89336402 233.50411054 83.53629785 244.08007812 91.30639648 C245.14162109 92.05663086 245.14162109 92.05663086 246.22460938 92.82202148 C253.69442812 98.65643612 260.21980561 108.14334658 262.64257812 117.30639648 C263.857043 121.79825288 266.3693127 123.45856098 270.14648438 125.97436523 C274.35512191 128.87364887 276.47356948 132.56717474 278.08007812 137.30639648 C279.54220336 149.23863747 276.42610286 160.85457564 273.84570312 172.41186523 C273.40582907 174.42793755 272.96702642 176.44424389 272.52923584 178.46076965 C271.61347059 182.66420007 270.68802947 186.86533614 269.75488281 191.06494141 C268.56516274 196.4208208 267.39507864 201.78074931 266.23163223 207.14239025 C265.32833269 211.29866906 264.41707831 215.4531711 263.50322723 219.60714149 C263.0692414 221.58209984 262.63709928 223.55746435 262.20691681 225.53325462 C256.70717314 250.71913089 248.71999616 271.62041099 226.32617188 286.36499023 C218.61767842 290.97524444 210.21633794 295.30639648 201.08007812 295.30639648 C201.08007812 306.52639648 201.08007812 317.74639648 201.08007812 329.30639648 C195.80007813 329.30639648 190.52007812 329.30639648 185.08007812 329.30639648 C185.08007812 318.41639648 185.08007812 307.52639648 185.08007812 296.30639648 C163.96007812 296.30639648 142.84007812 296.30639648 121.08007812 296.30639648 C121.08007812 307.19639648 121.08007812 318.08639648 121.08007812 329.30639648 C115.80007813 329.30639648 110.52007812 329.30639648 105.08007812 329.30639648 C105.08007812 318.41639648 105.08007812 307.52639648 105.08007812 296.30639648 C96.04492535 296.46439942 96.04492535 296.46439942 87.01074219 296.66674805 C85.8837793 296.67673828 84.75681641 296.68672852 83.59570312 296.69702148 C82.44360352 296.71796875 81.29150391 296.73891602 80.10449219 296.76049805 C77.08007813 296.30639648 77.08007813 296.30639648 74.70605469 294.78808594 C72.44653803 291.33943927 72.50598417 288.19938319 72.54882812 284.20874023 C72.54500122 283.41923477 72.54117432 282.62972931 72.53723145 281.81629944 C72.5345122 280.14444709 72.54187443 278.47255221 72.55859375 276.80078125 C72.57980618 274.27626061 72.55889955 271.75465102 72.53320312 269.23022461 C72.51589433 258.94536148 73.20607009 250.11740853 79.08007812 241.30639648 C54.00007812 241.30639648 28.92007813 241.30639648 3.08007812 241.30639648 C5.55507813 246.25639648 5.55507813 246.25639648 8.08007812 251.30639648 C9.12862187 255.50057145 9.2775649 259.36391841 9.31835938 263.65014648 C9.32643112 264.45625366 9.33450287 265.26236084 9.34281921 266.09289551 C9.35662117 267.79408642 9.36736063 269.49530457 9.37524414 271.1965332 C9.38680068 272.93652454 9.40731012 274.67647942 9.43676758 276.41625977 C9.47935426 278.9319667 9.4955965 281.44662432 9.50585938 283.96264648 C9.52336746 284.73878296 9.54087555 285.51491943 9.55891418 286.3145752 C9.54493388 289.79131471 9.35357903 291.91134391 7.35131836 294.8034668 C4.72953343 296.53835963 3.42975453 296.77690101 0.31445312 296.69702148 C-0.48766602 296.68703125 -1.28978516 296.67704102 -2.11621094 296.66674805 C-3.12393555 296.63033203 -4.13166016 296.59391602 -5.16992188 296.55639648 C-8.38742188 296.47389648 -11.60492188 296.39139648 -14.91992188 296.30639648 C-14.91992188 307.19639648 -14.91992188 318.08639648 -14.91992188 329.30639648 C-20.19992188 329.30639648 -25.47992188 329.30639648 -30.91992188 329.30639648 C-30.91992188 318.41639648 -30.91992188 307.52639648 -30.91992188 296.30639648 C-52.03992188 296.30639648 -73.15992188 296.30639648 -94.91992188 296.30639648 C-94.91992188 307.19639648 -94.91992188 318.08639648 -94.91992188 329.30639648 C-100.19992188 329.30639648 -105.47992188 329.30639648 -110.91992188 329.30639648 C-110.91992188 318.41639648 -110.91992188 307.52639648 -110.91992188 296.30639648 C-113.22992188 296.30639648 -115.53992188 296.30639648 -117.91992188 296.30639648 C-120.10058594 295.94262695 -120.10058594 295.94262695 -121.93554688 295.42358398 C-122.62374512 295.22925781 -123.31194336 295.03493164 -124.02099609 294.8347168 C-124.7301416 294.61912109 -125.43928711 294.40352539 -126.16992188 294.18139648 C-126.9164502 293.95548828 -127.66297852 293.72958008 -128.43212891 293.49682617 C-147.22339415 287.56445092 -160.37128254 274.93366604 -170.02539062 258.16186523 C-175.75673062 246.99162769 -178.03721316 234.76292917 -180.68554688 222.59936523 C-181.12799227 220.58590961 -181.57068472 218.57250825 -182.01361084 216.55915833 C-182.936674 212.35358666 -183.85354218 208.14671912 -184.76660156 203.93896484 C-185.93047245 198.5799368 -187.11462687 193.22561916 -188.304142 187.87223339 C-189.22361228 183.71938557 -190.12963496 179.56368575 -191.03203583 175.40709877 C-191.46271502 173.43316925 -191.89801617 171.46024167 -192.33826447 169.4884243 C-198.84753478 140.2588691 -198.84753478 140.2588691 -193.33398438 131.05639648 C-190.20573042 127.18496618 -186.3959123 123.5443917 -181.91992188 121.30639648 C-181.15570229 119.3691887 -180.45903651 117.40516377 -179.79492188 115.43139648 C-174.43800291 101.10438741 -164.40539823 91.16524863 -150.91992188 84.30639648 C-139.85417762 79.28025718 -128.42818887 79.69385903 -116.51074219 79.78491211 C-113.19065533 79.80626315 -109.87275355 79.78508278 -106.55273438 79.75952148 C-88.03977473 79.73444438 -71.65813282 81.81425585 -55.91992188 92.30639648 C-55.91627625 91.74422424 -55.91263062 91.182052 -55.90887451 90.60284424 C-55.86672566 84.69649439 -55.79715914 78.79089841 -55.71240234 72.88500977 C-55.6843572 70.68749571 -55.66306173 68.48988387 -55.64892578 66.29223633 C-55.48936638 42.87955387 -55.48936638 42.87955387 -50.91992188 33.30639648 C-50.4275 32.20682617 -49.93507812 31.10725586 -49.42773438 29.97436523 C-41.26735494 15.33639648 -29.76663205 6.70459581 -13.87097168 1.26255798 C-9.2686089 -0.02711505 -4.7518993 0.00348984 0 0 Z M-29.16992188 29.98608398 C-38.15846114 41.903924 -39.23233675 54.92723064 -39.22070312 69.41186523 C-39.22498825 70.61651932 -39.22927338 71.8211734 -39.23368835 73.06233215 C-39.23939178 75.58923721 -39.23996164 78.11615868 -39.2355957 80.64306641 C-39.23242177 84.49401807 -39.25599445 88.34421054 -39.28125 92.19506836 C-39.28352211 94.66316636 -39.2842269 97.1312664 -39.28320312 99.59936523 C-39.29241287 100.74020065 -39.30162262 101.88103607 -39.31111145 103.05644226 C-39.27170857 109.8995149 -39.13789142 117.31107672 -34.64497375 122.889328 C-27.50907692 129.44235917 -18.40642359 128.61375278 -9.35742188 128.60717773 C-8.05216553 128.61146286 -6.74690918 128.61574799 -5.40209961 128.62016296 C-2.64855874 128.62759407 0.10485382 128.62735609 2.85839844 128.62207031 C6.37205608 128.61627153 9.88518728 128.63323102 13.39875793 128.65641499 C16.77171936 128.67475699 20.14456719 128.67096596 23.51757812 128.66967773 C24.7719165 128.67888748 26.02625488 128.68809723 27.31860352 128.69758606 C34.98911611 128.65703169 40.60878616 128.4216585 46.51757812 123.11889648 C48.5520698 119.45681147 48.98964896 116.34805472 48.08007812 112.30639648 C45.01616908 107.44018799 42.58379446 105.6487009 37.08007812 104.30639648 C33.41962006 104.01770968 29.77011176 104.00558337 26.09960938 103.99780273 C23.94530957 103.97266226 21.79101275 103.94726398 19.63671875 103.92163086 C16.25269219 103.89279603 12.86871729 103.86876486 9.48461914 103.85009766 C6.21019051 103.82851948 2.93633966 103.78910955 -0.33789062 103.74780273 C-1.35352585 103.74768692 -2.36916107 103.74757111 -3.41557312 103.74745178 C-4.35697647 103.73411301 -5.29837982 103.72077423 -6.26831055 103.70703125 C-7.09626633 103.7019606 -7.92422211 103.69688995 -8.77726746 103.69166565 C-11.45933085 103.20940574 -12.34240647 102.50956347 -13.91992188 100.30639648 C-14.21840181 97.25777124 -14.34014032 94.41779553 -14.31835938 91.36889648 C-14.32122955 90.49241455 -14.32409973 89.61593262 -14.32705688 88.71289062 C-14.32909786 86.86026361 -14.32356565 85.00761506 -14.31103516 83.1550293 C-14.29498171 80.3169747 -14.31088243 77.48034422 -14.33007812 74.64233398 C-14.3280957 72.84285167 -14.32425204 71.04337024 -14.31835938 69.24389648 C-14.32443207 68.39384033 -14.33050476 67.54378418 -14.33676147 66.66796875 C-14.26577802 60.73106111 -14.26577802 60.73106111 -12.51675415 58.58349609 C-10.52840614 56.99327369 -9.44194423 56.90273714 -6.91992188 56.93139648 C-5.89898437 56.91979492 -5.89898437 56.91979492 -4.85742188 56.90795898 C-2.91992188 57.30639648 -2.91992188 57.30639648 0.08007812 60.30639648 C0.41007812 69.54639648 0.74007812 78.78639648 1.08007812 88.30639648 C27.48007813 88.30639648 53.88007813 88.30639648 81.08007812 88.30639648 C81.41007812 79.06639648 81.74007812 69.82639648 82.08007812 60.30639648 C85.08007812 57.30639648 85.08007812 57.30639648 87.01757812 56.90795898 C87.69820313 56.91569336 88.37882812 56.92342773 89.08007812 56.93139648 C90.10101563 56.91979492 90.10101563 56.91979492 91.14257812 56.90795898 C93.66926861 57.42756066 94.4633788 58.32130813 96.08007812 60.30639648 C96.37855806 63.35502173 96.50029657 66.19499744 96.47851562 69.24389648 C96.48282089 70.55861938 96.48282089 70.55861938 96.48721313 71.89990234 C96.48925411 73.75252936 96.4837219 75.60517791 96.47119141 77.45776367 C96.45513796 80.29581827 96.47103868 83.13244875 96.49023438 85.97045898 C96.48825195 87.7699413 96.48440829 89.56942273 96.47851562 91.36889648 C96.48458832 92.21895264 96.49066101 93.06900879 96.49691772 93.94482422 C96.42620779 99.85885546 96.42620779 99.85885546 94.7492218 102.0271759 C92.08047558 104.07248521 89.53118926 103.74835616 86.22460938 103.81811523 C85.56297287 103.83606644 84.90133636 103.85401764 84.21965027 103.87251282 C82.11069066 103.92660547 80.00195714 103.96050579 77.89257812 103.99389648 C76.46090604 104.02707076 75.02926379 104.06156053 73.59765625 104.09741211 C70.09201423 104.18232905 66.58629339 104.2491457 63.08007812 104.30639648 C63.32346924 105.18038086 63.32346924 105.18038086 63.57177734 106.07202148 C64.34253523 109.46009841 64.22385854 112.85079946 64.20507812 116.30639648 C64.20894531 117.01795898 64.2128125 117.72952148 64.21679688 118.46264648 C64.21035259 121.91678544 64.00497464 124.98521894 63.08007812 128.30639648 C68.89670053 128.38098328 74.71303976 128.43520409 80.5300293 128.47119141 C82.50566462 128.48620604 84.48126702 128.506624 86.45678711 128.53271484 C89.30916508 128.56942221 92.16109942 128.58619642 95.01367188 128.59936523 C95.88591904 128.61484909 96.7581662 128.63033295 97.65684509 128.64628601 C104.45068476 128.64811826 110.75831399 127.57918247 116.45507812 123.68139648 C121.48155728 116.33500387 121.51293632 108.21804262 121.44335938 99.59936523 C121.44385788 98.39758133 121.44435638 97.19579742 121.44487 95.95759583 C121.44253881 93.42532695 121.4328671 90.89305534 121.41625977 88.36083984 C121.39271536 84.51630562 121.39570115 80.67246873 121.40234375 76.82788086 C121.39676423 74.35587157 121.38965263 71.88386518 121.38085938 69.41186523 C121.38222649 67.70972115 121.38222649 67.70972115 121.38362122 65.97319031 C121.26370631 52.2455629 119.56153966 38.89904423 109.83007812 28.43139648 C99.11104544 18.73209478 87.1095463 16.15201597 73.01855469 16.16113281 C72.25637634 16.1577742 71.494198 16.15441559 70.70892334 16.1509552 C68.21283291 16.1415303 65.71681019 16.13950629 63.22070312 16.13842773 C61.46726454 16.13520896 59.71382622 16.13184444 57.96038818 16.12834167 C54.29227069 16.1223713 50.62417669 16.12049959 46.95605469 16.12109375 C42.28506409 16.12119518 37.61422614 16.10755343 32.94327164 16.09032154 C29.3227267 16.07913276 25.70221785 16.07717665 22.08165741 16.07770348 C20.36109644 16.0765333 18.64053424 16.07216645 16.91999054 16.06437111 C-0.04700174 15.99469951 -16.88403499 16.5227996 -29.16992188 29.98608398 Z M-157.20117188 109.98608398 C-158.77205693 112.10677881 -159.86898817 114.09196882 -161.02734375 116.45141602 C-161.38308472 117.17297882 -161.73882568 117.89454163 -162.10534668 118.63796997 C-162.37415649 119.18855072 -162.64296631 119.73913147 -162.91992188 120.30639648 C-162.21772018 120.31004211 -161.51551849 120.31368774 -160.79203796 120.31744385 C-154.12878586 120.35553207 -147.4659873 120.41261703 -140.80307293 120.49029922 C-137.37870742 120.52957343 -133.95459131 120.56185865 -130.5300293 120.57739258 C-126.58024059 120.59563101 -122.63114254 120.64566934 -118.68164062 120.69702148 C-117.46973557 120.69825012 -116.25783051 120.69947876 -115.00920105 120.70074463 C-102.6111868 120.9114285 -93.28441549 124.36073663 -84.27148438 132.86108398 C-76.00637174 141.62965526 -73.66159539 153.40825889 -71.25585938 164.82592773 C-70.93519645 166.2982743 -70.61319998 167.770331 -70.28994751 169.24211121 C-69.44899813 173.08277228 -68.62133549 176.9261512 -67.79803467 180.77062988 C-66.47630336 186.93977829 -65.14150377 193.10600194 -63.79259109 199.26926231 C-63.32742367 201.40922816 -62.87258814 203.55120755 -62.41854858 205.69355774 C-62.1321515 207.01226721 -61.84535804 208.33089068 -61.55810547 209.64941406 C-61.19100967 211.36503288 -61.19100967 211.36503288 -60.8164978 213.11531067 C-59.1432649 219.31017506 -59.1432649 219.31017506 -54.74983215 223.66720581 C-51.02930232 224.50756036 -47.4330978 224.56897198 -43.64135742 224.53344727 C-42.41131233 224.53388535 -42.41131233 224.53388535 -41.15641785 224.53433228 C-38.45638302 224.53294324 -35.75662701 224.51740215 -33.05664062 224.50170898 C-31.18048758 224.49797734 -29.30433258 224.49513108 -27.42817688 224.49313354 C-22.49785959 224.48550903 -17.56766074 224.46587066 -12.63739014 224.44372559 C-7.60332847 224.42324172 -2.56924761 224.41412639 2.46484375 224.40405273 C12.33664048 224.38262367 22.20834944 224.34850196 32.08007812 224.30639648 C31.93442559 222.8564132 31.78442434 221.40686627 31.63256836 219.95751953 C31.54949936 219.15025925 31.46643036 218.34299896 31.38084412 217.51127625 C30.66489308 212.26272421 27.88002445 208.70736993 23.77148438 205.50952148 C16.90863348 201.12231087 11.1431192 200.30514754 3.06054688 200.16577148 C1.95517578 200.14643555 0.84980469 200.12709961 -0.2890625 200.10717773 C-2.57274109 200.07349898 -4.85669958 200.05510791 -7.140625 200.05249023 C-14.53294284 199.88926648 -20.97543303 199.01160275 -26.91992188 194.30639648 C-31.81973732 188.60563602 -33.77734829 182.60839787 -35.95117188 175.48608398 C-36.30957153 174.35042999 -36.66797119 173.214776 -37.03723145 172.04470825 C-38.17674418 168.42722376 -39.29915016 164.80472649 -40.41992188 161.18139648 C-41.54363264 157.58049122 -42.67102111 153.98079132 -43.8026123 150.38235474 C-44.50357355 148.15000549 -45.19965407 145.91611505 -45.88977051 143.6803894 C-51.21445747 126.62089119 -56.71544983 111.13485768 -73.17382812 102.06420898 C-86.12121146 95.89449936 -100.44249969 96.22030512 -114.48242188 96.11889648 C-116.04283203 96.09931885 -116.04283203 96.09931885 -117.63476562 96.0793457 C-132.92741671 96.06249297 -146.13389292 98.77318294 -157.20117188 109.98608398 Z M147.08007812 105.30639648 C146.46519531 105.77432617 145.8503125 106.24225586 145.21679688 106.72436523 C133.41048695 116.90763477 130.24694167 135.98691201 125.95620728 150.1672821 C123.73384192 157.48726856 121.42252301 164.77727133 119.04455566 172.04815674 C118.57239455 173.49920715 118.10541617 174.95195536 117.6439209 176.40643311 C116.9951112 178.44922065 116.32884805 180.48553307 115.65820312 182.52124023 C115.28083008 183.68776123 114.90345703 184.85428223 114.51464844 186.05615234 C111.97207471 191.81675207 108.29942776 195.96816297 102.52490234 198.58666992 C97.35821135 200.10768101 91.98840889 199.9080395 86.64257812 199.93139648 C70.14935231 199.77842481 70.14935231 199.77842481 56.45117188 207.94702148 C51.64557347 213.27370887 49.98075553 217.06577902 50.08007812 224.30639648 C60.92865227 224.37595278 71.77717322 224.42923643 82.62592506 224.461833 C87.6636201 224.47747891 92.70116239 224.49869766 97.73876953 224.53271484 C102.60170363 224.56534646 107.46449094 224.58325759 112.32752609 224.59102821 C114.18145432 224.59656488 116.03537464 224.60737668 117.88924026 224.62358665 C120.48899859 224.6454115 123.08815287 224.6483613 125.68798828 224.64697266 C126.45187866 224.65775848 127.21576904 224.66854431 128.00280762 224.67965698 C132.75812731 224.65223056 136.11927105 223.98883247 140.08007812 221.30639648 C141.31887907 219.35103616 141.31887907 219.35103616 141.75415039 217.0078125 C141.97523468 216.11627472 142.19631897 215.22473694 142.42410278 214.30618286 C142.64057465 213.31625336 142.85704651 212.32632385 143.08007812 211.30639648 C143.33111298 210.24145966 143.58214783 209.17652283 143.84078979 208.07931519 C144.68922826 204.42032136 145.49499634 200.75363337 146.29492188 197.08374023 C146.59433831 195.72940589 146.89436354 194.37520601 147.19496155 193.02113342 C148.45899733 187.32437182 149.71619686 181.62614305 150.96166992 175.92529297 C151.72854194 172.41708079 152.50481122 168.9110547 153.28683662 165.40619087 C153.72128616 163.44647135 154.14544096 161.48447854 154.56932068 159.52244568 C157.66687369 145.67563761 162.42396785 134.95678891 174.08007812 126.30639648 C182.65343936 121.54742057 190.48347584 120.56839767 200.15820312 120.59936523 C201.45079041 120.58424393 202.74337769 120.56912262 204.07513428 120.55354309 C207.46827181 120.51411851 210.86087201 120.50353072 214.25421143 120.49951172 C217.73408883 120.49009863 221.21366091 120.45263551 224.69335938 120.41772461 C231.4888887 120.35358442 238.28426428 120.31998811 245.08007812 120.30639648 C244.45203347 119.02002495 243.82050103 117.73535586 243.1875 116.45141602 C242.83619019 115.73583527 242.48488037 115.02025452 242.1229248 114.2829895 C237.86185883 106.20664097 229.46027734 101.23015488 221.08007812 98.30639648 C211.3084174 95.82378393 201.32707424 95.96646535 191.31689453 95.99072266 C188.5852085 95.99389053 185.85460048 95.97031966 183.12304688 95.94506836 C169.68707922 95.89542968 157.91710889 96.52358045 147.08007812 105.30639648 Z M-177.91992188 139.30639648 C-180.59166691 144.64988656 -178.46029876 151.48183886 -177.25512695 157.06469727 C-177.07784058 157.91290543 -176.9005542 158.76111359 -176.71789551 159.63502502 C-176.13242881 162.42552729 -175.53645474 165.21365345 -174.93945312 168.00170898 C-174.525132 169.95589647 -174.11113064 171.91015177 -173.69743347 173.86447144 C-172.82878705 177.95912203 -171.95463735 182.0525517 -171.0769043 186.14526367 C-169.95982308 191.35726285 -168.85887753 196.5725177 -167.76245594 201.78889656 C-166.91112749 205.82801209 -166.04982666 209.86495426 -165.18576622 213.90136337 C-164.77623442 215.82133402 -164.36999799 217.74201096 -163.96729469 219.66342545 C-159.80184306 239.49225665 -154.53751634 258.61372632 -136.65039062 270.47436523 C-123.37649751 278.56117887 -111.03152934 280.48188468 -95.69677734 280.41992188 C-94.24618172 280.42014091 -94.24618172 280.42014091 -92.76628113 280.42036438 C-89.60653346 280.41967414 -86.4468466 280.41192382 -83.28710938 280.40405273 C-81.08179761 280.40218539 -78.87648543 280.40076298 -76.6711731 280.39976501 C-70.89431595 280.39596474 -65.11748433 280.38615594 -59.34063721 280.37506104 C-53.43477728 280.36479316 -47.52891318 280.36025592 -41.62304688 280.35522461 C-30.05532738 280.34453124 -18.48762676 280.32748502 -6.91992188 280.30639648 C-6.90129006 277.74386255 -6.88768625 275.18146566 -6.87695312 272.61889648 C-6.87119263 271.89766602 -6.86543213 271.17643555 -6.85949707 270.43334961 C-6.83220871 261.74076525 -7.89465476 253.96075181 -13.91992188 247.30639648 C-21.1972626 241.71778758 -27.475301 240.22052384 -36.56835938 240.13061523 C-37.82132813 240.10676758 -39.07429687 240.08291992 -40.36523438 240.05834961 C-42.97704919 240.01551169 -45.58907924 239.9841903 -48.20117188 239.96459961 C-56.61652692 239.77883972 -62.18023662 239.04972354 -68.90820312 233.73608398 C-75.83491988 225.60383246 -76.92218943 214.23458281 -79.13476562 204.08374023 C-79.43418206 202.72940589 -79.73420729 201.37520601 -80.0348053 200.02113342 C-81.29884108 194.32437182 -82.55604061 188.62614305 -83.80151367 182.92529297 C-84.56838569 179.41708079 -85.34465497 175.9110547 -86.12668037 172.40619087 C-86.56112991 170.44647135 -86.98528471 168.48447854 -87.40916443 166.52244568 C-90.56440955 151.93439052 -90.56440955 151.93439052 -99.96289062 140.93139648 C-106.23562706 137.23289862 -111.63673024 136.19418923 -118.921875 136.14526367 C-120.08328003 136.13565613 -121.24468506 136.12604858 -122.44128418 136.1161499 C-123.68204712 136.11190002 -124.92281006 136.10765015 -126.20117188 136.10327148 C-127.4880188 136.09757141 -128.77486572 136.09187134 -130.10070801 136.08599854 C-132.81730541 136.0755325 -135.53387359 136.06966031 -138.25048828 136.06616211 C-141.72052071 136.06066849 -145.19016255 136.03660395 -148.66007233 136.00819016 C-151.98626445 135.98503005 -155.31240334 135.98311329 -158.63867188 135.97827148 C-159.87943481 135.96592468 -161.12019775 135.95357788 -162.39855957 135.94085693 C-170.6611115 135.87036111 -170.6611115 135.87036111 -177.91992188 139.30639648 Z M181.76757812 141.05639648 C181.15269531 141.52561523 180.5378125 141.99483398 179.90429688 142.47827148 C175.85491021 146.53632921 173.61868719 150.86149797 172.23632812 156.37670898 C172.07853882 157.00014191 171.92074951 157.62357483 171.75817871 158.26589966 C168.48143864 171.47691079 165.64497397 184.80694468 162.71630859 198.09838867 C161.87727317 201.8962284 161.02643683 205.69127175 160.17382812 209.48608398 C159.92266235 210.63938202 159.67149658 211.79268005 159.41271973 212.98092651 C157.19066266 222.80328466 155.00180231 231.64917013 146.08007812 237.30639648 C142.12689721 239.19163192 138.89205339 239.57847903 134.52929688 239.65014648 C133.27310547 239.67979492 132.01691406 239.70944336 130.72265625 239.73999023 C128.76489258 239.77286133 128.76489258 239.77286133 126.76757812 239.80639648 C110.27517902 239.78898739 110.27517902 239.78898739 96.08007812 247.30639648 C89.82529855 255.31142891 88.90012003 262.86838164 89.01757812 272.74389648 C89.02208984 273.47543945 89.02660156 274.20698242 89.03125 274.96069336 C89.04289665 276.74263067 89.06082621 278.52452511 89.08007812 280.30639648 C101.74626922 280.35291799 114.41243969 280.38836584 127.07869911 280.41002083 C132.96135114 280.42041874 138.84394432 280.43450436 144.7265625 280.45727539 C150.41297349 280.47914696 156.0993282 280.49099507 161.78577805 280.49615097 C163.94568135 280.49982119 166.10558189 280.50698753 168.26546097 280.5178566 C191.36192467 280.62936826 210.49626932 279.05991538 228.26757812 262.61889648 C235.25738756 255.20631631 239.08581013 247.31792084 241.52416992 237.5690918 C241.73656909 236.74004459 241.94896826 235.91099739 242.16780376 235.05682755 C244.40456875 226.21992349 246.37116003 217.32673987 248.28710938 208.41577148 C248.66094274 206.68846127 249.03494441 204.96118747 249.40910339 203.23394775 C250.18252361 199.65830691 250.95261189 196.08196852 251.72045898 192.50512695 C252.70217803 187.93428003 253.69454266 183.36581459 254.6895647 178.79784775 C255.46064223 175.25067266 256.22509993 171.70209515 256.98767662 168.1530838 C257.35099956 166.46697151 257.71659464 164.78134706 258.08457375 163.09624481 C258.59624149 160.74942333 259.09867257 158.40080129 259.59887695 156.05151367 C259.74998428 155.36782211 259.90109161 154.68413055 260.05677795 153.97972107 C260.95693181 149.69230948 261.36480106 145.68308037 261.08007812 141.30639648 C258.86144783 138.39922575 257.56062884 137.46658006 254.08007812 136.30639648 C252.21078346 136.20799423 250.33817826 136.16816726 248.46630859 136.16113281 C247.31436005 136.15475296 246.1624115 136.14837311 244.97555542 136.14179993 C243.72871979 136.1406871 242.48188416 136.13957428 241.19726562 136.13842773 C239.91328888 136.13509933 238.62931213 136.13177094 237.306427 136.12834167 C234.58448447 136.12235239 231.86257366 136.12050136 229.140625 136.12109375 C225.67425079 136.12119488 222.20808369 136.10759326 218.74175835 136.09032154 C215.41442489 136.07643208 212.08712763 136.07710991 208.75976562 136.07592773 C207.52507538 136.06874222 206.29038513 136.0615567 205.01828003 136.05415344 C192.68351643 135.96135124 192.68351643 135.96135124 181.76757812 141.05639648 Z M-27.91992188 144.30639648 C-26.16989098 152.18153552 -24.02068527 159.55430455 -21.48242188 167.18139648 C-20.88977539 169.01444336 -20.88977539 169.01444336 -20.28515625 170.88452148 C-19.89779297 172.05241211 -19.51042969 173.22030273 -19.11132812 174.42358398 C-18.76271729 175.48174316 -18.41410645 176.53990234 -18.05493164 177.63012695 C-16.93927665 180.26075936 -16.19632944 181.62019418 -13.91992188 183.30639648 C-10.61180261 184.54666147 -7.29509595 184.44591333 -3.79101562 184.48217773 C-2.59025391 184.50602539 -1.38949219 184.52987305 -0.15234375 184.55444336 C2.35009462 184.59694489 4.85274739 184.62844543 7.35546875 184.64819336 C17.19445169 184.87359361 26.35828966 186.25708369 34.01757812 192.93139648 C36.61728989 195.15694412 38.95314688 196.89333136 42.08007812 198.30639648 C42.5415625 197.8590918 43.00304687 197.41178711 43.47851562 196.95092773 C51.44211952 189.5696427 59.5177293 185.2931651 70.41992188 185.06030273 C71.64775391 185.02743164 72.87558594 184.99456055 74.140625 184.96069336 C76.72126673 184.89959 79.30200128 184.8422864 81.8828125 184.78881836 C83.11193359 184.7546582 84.34105469 184.72049805 85.60742188 184.68530273 C86.72882568 184.66024658 87.85022949 184.63519043 89.00561523 184.609375 C93.03479551 184.21231213 95.85197969 183.55366982 98.73754883 180.62304688 C100.4725337 177.62918046 101.53052993 174.52397466 102.56054688 171.23999023 C102.77826248 170.56468765 102.99597809 169.88938507 103.22029114 169.19361877 C103.67684223 167.77186219 104.1296292 166.348892 104.57885742 164.92480469 C105.26726552 162.74488639 105.96858785 160.56944503 106.671875 158.39428711 C109.12070818 151.48469692 109.12070818 151.48469692 110.08007812 144.30639648 C64.54007813 144.30639648 19.00007813 144.30639648 -27.91992188 144.30639648 Z " fill="#000000" transform="translate(214.919921875,167.693603515625)"/>
<path d="M0 0 C11.07886281 7.50297625 17.57856661 17.92690971 20.7421875 30.8359375 C23.11137879 44.72304338 20.17391322 58.15968644 12.25 69.8125 C5.12942592 79.77382805 -5.70965087 86.55996252 -17.75 88.8125 C-33.30632481 90.26087104 -45.84031828 88.04614549 -58.75 78.8125 C-68.88908114 69.83793813 -75.08147558 58.02269112 -75.96484375 44.53125 C-76.37659533 29.37879196 -71.94664725 16.32577363 -61.48046875 5.2109375 C-43.9447362 -10.19240983 -19.86279953 -11.65211978 0 0 Z M-47.8828125 16.53515625 C-54.19959227 22.39740759 -58.04969259 29.37196788 -58.98828125 38.00390625 C-59.26242362 46.76203351 -57.1079897 54.39312946 -51.4375 61.1875 C-44.95431037 67.94774901 -38.449977 71.79621665 -28.94921875 72.7734375 C-20.03881243 72.93170404 -12.176971 69.72050105 -5.55078125 63.87109375 C0.77779772 57.33195208 4.28611536 49.95972533 4.75 40.8125 C4.24091114 31.06267703 0.3397043 23.83485898 -6.3984375 16.91015625 C-18.23902958 6.34803341 -35.71490806 6.70723343 -47.8828125 16.53515625 Z " fill="#000000" transform="translate(440.75,151.1875)"/>
<path d="M0 0 C11.20873649 8.16839206 18.98496441 18.36232204 21.75 32.1875 C21.97599677 33.89116795 22.1675149 35.60003442 22.3125 37.3125 C22.37050781 37.99570313 22.42851562 38.67890625 22.48828125 39.3828125 C22.56554681 41.39171716 22.48258183 43.30931403 22.3125 45.3125 C22.24417969 46.11945313 22.17585938 46.92640625 22.10546875 47.7578125 C20.34587172 61.02246701 13.59631961 71.94051492 3.3125 80.3125 C-8.99543686 89.32811161 -21.79738977 90.69399084 -36.6875 89.3125 C-40.71595831 88.49008118 -44.06280107 87.23180779 -47.6875 85.3125 C-48.55632812 84.86519531 -49.42515625 84.41789062 -50.3203125 83.95703125 C-62.42299915 77.21926689 -69.91493674 67.00586388 -73.99609375 53.7890625 C-76.0313263 43.55540731 -76.00164734 31.93636715 -71.6875 22.3125 C-71.35878906 21.57128906 -71.03007813 20.83007812 -70.69140625 20.06640625 C-65.6035071 9.90821315 -57.85195405 2.27077027 -47.6875 -2.6875 C-46.90375 -3.1 -46.12 -3.5125 -45.3125 -3.9375 C-31.1620453 -10.30520462 -12.9266041 -7.94631999 0 0 Z M-49.6875 19.3125 C-56.81863838 28.56926617 -58.7381957 36.63664406 -57.6875 48.3125 C-56.81108525 51.6637905 -55.50557572 54.37517141 -53.6875 57.3125 C-53.275 58.00988281 -52.8625 58.70726562 -52.4375 59.42578125 C-47.45170838 66.94696122 -40.46334425 71.03025914 -31.6875 72.8125 C-21.56037127 74.05572808 -13.80617242 71.40852739 -5.6875 65.3125 C1.46591651 58.89591609 4.87587273 50.58123126 5.40625 41.07421875 C5.12403309 32.76057883 1.65279604 25.59095616 -3.6875 19.3125 C-11.81468602 11.74694879 -18.95256679 9.72179493 -29.953125 9.9609375 C-37.84195986 10.70361024 -44.12344769 13.62199196 -49.6875 19.3125 Z " fill="#000000" transform="translate(125.6875,150.6875)"/>
<path d="M0 0 C10.63879445 8.01319454 18.03916224 17.37500003 20.6875 30.6875 C22.17610155 45.466963 20.68515734 58.32023658 11.53125 70.44140625 C4.04011293 79.56726179 -5.34743416 86.87641063 -17.3125 88.6875 C-31.45295902 89.96836177 -44.33755554 89.06844427 -56.1875 80.4375 C-65.92147921 72.06048815 -74.2261099 61.69049732 -75.53369141 48.44726562 C-76.33518162 31.70805722 -73.63887295 19.75156979 -62.65625 6.72265625 C-46.76679612 -10.40347683 -19.22019308 -12.75600258 0 0 Z M-51.3125 19.5 C-52.35781344 20.86222998 -53.36064944 22.25839846 -54.3125 23.6875 C-54.74433594 24.33074219 -55.17617187 24.97398438 -55.62109375 25.63671875 C-59.43979409 32.57380414 -59.53993166 41.00171294 -58.3125 48.6875 C-55.48587673 57.80697068 -50.32136048 64.20193324 -42.1171875 68.9609375 C-33.67147835 73.11022318 -25.25301119 73.67223421 -16.3125 70.6875 C-7.8227584 66.74986505 -1.93583051 61.60756923 2.0625 53.125 C4.94974878 45.15473761 4.96429138 36.30184805 2.125 28.3125 C-1.83576766 19.87855767 -7.78378212 14.36068164 -16.3125 10.6875 C-28.85149999 6.57021642 -42.32735904 10.00087852 -51.3125 19.5 Z " fill="#000000" transform="translate(283.3125,71.3125)"/>
</svg>
