<?xml version="1.0" encoding="UTF-8"?>
<svg version="1.1" xmlns="http://www.w3.org/2000/svg" width="24" height="24">
<path d="M0 0 C3.31248187 -0.02888146 6.62493167 -0.04675799 9.9375 -0.0625 C10.88302734 -0.07087891 11.82855469 -0.07925781 12.80273438 -0.08789062 C14.15141602 -0.09272461 14.15141602 -0.09272461 15.52734375 -0.09765625 C16.77632446 -0.10551147 16.77632446 -0.10551147 18.05053711 -0.11352539 C20 -0 20 -0 21 1 C21.07382374 3.6133603 21.09221317 6.20002639 21.0625 8.8125 C21.05798828 9.53759766 21.05347656 10.26269531 21.04882812 11.00976562 C21.03604003 13.0065358 21.01820725 15.00327188 21 17 C21 18.32 21 19.64 21 21 C20.67 21.99 20.34 22.98 20 24 C16.68751813 24.02888146 13.37506833 24.04675799 10.0625 24.0625 C9.11697266 24.07087891 8.17144531 24.07925781 7.19726562 24.08789062 C5.84858398 24.09272461 5.84858398 24.09272461 4.47265625 24.09765625 C3.22367554 24.10551147 3.22367554 24.10551147 1.94946289 24.11352539 C0 24 0 24 -1 23 C-1.07380357 20.55267373 -1.09225006 18.13387035 -1.0625 15.6875 C-1.05798828 15.01009766 -1.05347656 14.33269531 -1.04882812 13.63476562 C-1.03597576 11.75648387 -1.01815697 9.87823797 -1 8 C-1 6.68 -1 5.36 -1 4 C-0.7018576 2.65835921 -0.37756808 1.32148827 0 0 Z M2 2 C2 2.99 2 3.98 2 5 C3.95825873 5.02694851 5.91662226 5.04637218 7.875 5.0625 C9.51082031 5.07990234 9.51082031 5.07990234 11.1796875 5.09765625 C13.95177546 5.19744303 13.95177546 5.19744303 16 4 C16 4.99 16 5.98 16 7 C11.38 7 6.76 7 2 7 C2 7.66 2 8.32 2 9 C4.97 9 7.94 9 11 9 C11 9.66 11 10.32 11 11 C8.03 11 5.06 11 2 11 C2 14.63 2 18.26 2 22 C7.28 22 12.56 22 18 22 C18 21.34 18 20.68 18 20 C14.04 20 10.08 20 6 20 C6 19.34 6 18.68 6 18 C10.29 18 14.58 18 19 18 C18.67 17.34 18.34 16.68 18 16 C12.88129357 14.59235573 8.16172083 15.2544181 3 16 C3.33 15.34 3.66 14.68 4 14 C6.97 14 9.94 14 13 14 C12.67 12.35 12.34 10.7 12 9 C13.98 9 15.96 9 18 9 C18 6.69 18 4.38 18 2 C12.72 2 7.44 2 2 2 Z M17 10 C16.34 11.32 15.68 12.64 15 14 C15.99 13.67 16.98 13.34 18 13 C17.67 12.01 17.34 11.02 17 10 Z " fill="#F1F1F1" transform="translate(2,0)"/>
</svg>
