<?xml version="1.0" encoding="UTF-8"?>
<!DOCTYPE svg PUBLIC "-//W3C//DTD SVG 1.1//EN" "http://www.w3.org/Graphics/SVG/1.1/DTD/svg11.dtd">
<!-- Creator: CorelDRAW -->
<svg xmlns="http://www.w3.org/2000/svg" xml:space="preserve" width="2048px" height="2048px" style="shape-rendering:geometricPrecision; text-rendering:geometricPrecision; image-rendering:optimizeQuality; fill-rule:evenodd; clip-rule:evenodd"
viewBox="0 0 2048 2048"
 xmlns:xlink="http://www.w3.org/1999/xlink">
 <defs>
  <style type="text/css">
   <![CDATA[
    .fil0 {fill:none}
    .fil1 {fill:#212121;fill-rule:nonzero}
   ]]>
  </style>
 </defs>
 <g id="Layer_x0020_1">
  <metadata id="CorelCorpID_0Corel-Layer"/>
  <rect class="fil0" width="2048" height="2048"/>
  <rect class="fil0" x="255.999" y="255.999" width="1536" height="1536"/>
  <g id="_393450808">
   <path id="_393450448" class="fil1" d="M1406.33 1339.43c-0.0897638,-0.784253 -0.264567,-1.74567 -0.496063,-2.82166 -0.440552,-2.0374 -0.732284,-3.24449 -0.904725,-3.81142l-0.500788 -1.87559c-3.20197,-13.3288 -8.94922,-34.174 -15.3626,-56.589 -9.32481,-32.5831 -18.6225,-63.3485 -23.8984,-80.3481l-1.00039 -3.8752c-0.264567,-1.50473 -0.588189,-2.84292 -0.957875,-4.03111 -0.258662,-0.831497 -0.522048,-1.60512 -0.786615,-2.32795 -3.22323,-5.04449 -11.6469,-17.8205 -16.0583,-20.7118l0.245669 -0.375591 -3.74764 -1.64055c-22.1669,-11.3811 -91.6583,-41.6244 -91.8579,-41.7107l-1.00039 -0.37441c-16.6725,-7.86379 -34.239,-15.3614 -52.3359,-22.7079 -15.5669,-6.31772 -27.561,-11.048 -38.3611,-15.2445 -43.3335,30.6768 -88.0418,47.5158 -134.347,48.3827 -46.6973,0.875198 -93.58,-14.5854 -140.685,-48.5681 -11.1272,4.3441 -23.4177,9.2256 -38.2335,15.2681 -18.1122,7.38426 -35.7307,14.9138 -52.5874,22.748l-0.750001 0.250394c-0.196063,0.0850394 -67.1233,29.1992 -90.5599,41.0197 -1.13858,0.672048 -2.32205,1.31811 -3.5067,1.96181 -4.50473,4.24607 -13.5768,13.148 -16.2425,18.3862 -0.819686,2.27362 -2.47087,6.99331 -2.85355,9.15237l-0.875198 3.75c-5.86063,19.3748 -15.1441,50.0906 -19.8791,66.3461 -7.45158,25.5827 -14.8996,52.05 -19.4894,70.8402l-0.500788 1.87559c-0.243307,0.786615 -0.543308,1.97599 -0.903544,3.63662 -0.236221,1.09134 -0.412205,2.06575 -0.504331,2.87126l-0.125197 0.500788c-0.0862205,0.662599 -0.184252,1.82835 -0.284646,3.40866 -0.0389764,0.614174 -0.0590552,1.87205 -0.0590552,3.69922 0,12.2232 4.40315,23.1083 11.5276,30.8303 6.45945,7.00276 15.2681,11.3315 24.8929,11.3315l698.228 0c9.62953,0 18.4394,-4.32874 24.9012,-11.3315 6.41812,-6.95552 10.6287,-16.4776 11.4012,-27.2315 -0.650788,-3.01418 -0.966142,-5.74961 -1.27677,-8.46851 -0.264567,-2.31732 0.0555119,-0.0980316 0.0838583,-0.00944883l0.00236221 0c0.00236221,-0.0401575 -0.0519685,-0.491339 -0.225591,-1.82953l-0.125197 -0.375591zm62.0032 -16.3217c0.614174,2.84646 1.12795,5.87363 1.49764,9.07205l-0.0755906 0.00826772c0.147638,1.13622 0.240945,1.82362 0.296457,2.21103l0.0377953 -0.00354331c-0.0366142,-0.367323 -0.0767717,-0.724016 0.00590552,-0.0011811l0.00944883 0.153543 -0.0153543 -0.152362 -0.0377953 0.00354331 0.0389764 0.269292c-0.0637796,0.187795 -0.309449,-0.115748 -0.43937,-0.223229l-0.0814961 0.00944883c0.00354331,0.0708662 0.0555119,0.236221 0.180709,0.558662l2.25118 11.5004c0,28.7717 -10.8969,54.9709 -28.5307,74.08 -18.2953,19.8284 -43.702,32.0835 -71.902,32.0835l-698.228 0c-28.1953,0 -53.602,-12.2551 -71.8938,-32.0835 -17.6303,-19.1114 -28.5284,-45.3083 -28.5284,-74.08 0,-1.87914 0.103937,-4.47048 0.309449,-7.69843 0.12874,-2.02323 0.368504,-4.42087 0.719292,-7.15276l-0.0590552 -0.00708662c0.369685,-3.21024 0.884646,-6.2563 1.50591,-9.12166 0.526772,-2.43189 1.28268,-5.22166 2.20394,-8.23938 4.80709,-19.5154 12.3756,-46.3973 19.9394,-72.3627 10.148,-34.8378 16.0063,-54.2906 19.5756,-66.0945 1.85315,-7.9382 5.73426,-18.1465 5.74607,-18.1795l0.750001 -1.87441c8.59371,-19.7882 34.7847,-43.3099 34.8591,-43.3772l2.75079 -2.25c2.06221,-1.4811 4.27087,-2.67284 6.53977,-3.90473 0.0874016,-0.0472441 0.080315,-0.0248032 0.0200788,0.0366142l0.0779528 0.144095 3.98977 -2.4378c22.2874,-11.426 87.3709,-39.841 94.8875,-43.115l-0.0295276 -0.0637796c18.5469,-8.61969 36.9485,-16.5024 55.3371,-24 13.9996,-5.70945 34.3146,-13.5744 56.0504,-21.9295l17.1189 -6.58111 14.2559 11.4555c39.8327,32.0067 77.9209,46.5402 114.494,45.8552 36.6024,-0.68504 73.4599,-16.728 110.541,-45.8504l14.1874 -11.1437 16.9382 6.51969c21.7713,8.37875 43.3146,16.6713 56.041,21.8362 18.4004,7.4693 36.8528,15.3721 55.5863,24.2079l-0.0236221 0.0507874c8.38938,3.65788 69.0756,30.1831 92.6965,42.0544 6.13937,2.43425 9.79253,5.23701 9.81261,5.24764l1.6252 1.00039c17.6079,11.5417 36.554,42.4311 36.6083,42.5185l2.1248 4.12559c1.61929,3.71693 3.01063,7.35945 4.11024,10.8957 1.08543,3.4878 1.98307,6.96378 2.65866,10.4161 6.15119,19.8709 15.6898,51.3544 23.6988,79.3382 5.71418,19.9713 11.3221,40.5496 15.5965,58.2319 0.962599,3.19016 1.71732,5.94567 2.17087,8.04331zm-120.344 -159.07c-0.00826772,-0.00472441 3.87284,0.648426 0.403937,-0.7063l-0.403937 0.7063zm-680.643 -57.2941l0.510237 -0.311811 -0.0779528 -0.144095c-0.266929,0.270473 -1.57441,1.30039 -0.432284,0.455906zm802.758 227.804c0,0.0519685 -0.00472441,0.0921261 -0.0141732,0.120473 0.0496063,0.316536 0.0377953,0.134646 0.0141732,-0.120473zm-0.453544 -0.102756c-0.0507874,-0.0425197 -0.0850394,-0.0531496 -0.0814961,0.00944883l0.0814961 -0.00944883zm-62.9729 7.18938c0.0011811,0.00354331 0.00236221,0.00354331 0.00236221,0l-0.00236221 0z"/>
   <path id="_393448840" class="fil1" d="M1022.46 563.318c60.815,0 115.877,24.6532 155.734,64.5119 39.8587,39.8575 64.5119,94.9194 64.5119,155.734 0,60.815 -24.6532,115.877 -64.5119,155.736 -39.8563,39.8563 -94.9194,64.5119 -155.734,64.5119 -60.815,0 -115.878,-24.6555 -155.734,-64.5119 -39.8587,-39.8587 -64.5119,-94.9205 -64.5119,-155.736 0,-60.815 24.6532,-115.877 64.5119,-155.734 39.8575,-39.8587 94.9194,-64.5119 155.734,-64.5119zm110.484 109.762c-28.2721,-28.2733 -67.3347,-45.7607 -110.484,-45.7607 -43.1492,0 -82.2119,17.4874 -110.484,45.7607 -28.2733,28.2721 -45.7607,67.3347 -45.7607,110.484 0,43.1492 17.4874,82.2119 45.7607,110.485 28.2709,28.2709 67.3347,45.7607 110.484,45.7607 43.1492,0 82.2131,-17.4898 110.484,-45.7607 28.2733,-28.2733 45.7607,-67.3359 45.7607,-110.485 0,-43.1492 -17.4874,-82.2119 -45.7607,-110.484z"/>
   <path id="_393453856" class="fil1" d="M1758.92 1212.44c-0.0188977,-0.167717 -0.0862205,-0.509056 -0.186614,-0.97441 -0.296457,-1.37362 -0.368504,-1.78228 -0.390945,-1.85669l-0.500788 -1.87559c-2.0374,-8.48505 -6.00355,-22.8248 -10.5154,-38.5925 -6.58938,-23.0268 -12.8988,-43.9276 -16.4091,-55.239l-1.00039 -3.8752c-0.114567,-0.650788 -0.232677,-1.15984 -0.350788,-1.54016l-0.157087 -0.488977c-2.15551,-3.36142 -5.95276,-9.0815 -7.42914,-10.05l0.120473 -0.184252 -1.60512 -0.702756c-14.237,-7.30985 -62.7638,-28.4374 -62.9032,-28.4977l-0.875198 -0.37441c-18.9768,-8.95276 -37.8697,-16.5851 -56.9729,-24.0177 -30.1394,20.3729 -61.3749,31.5343 -93.8682,32.1425 -32.8807,0.616536 -65.7284,-9.66261 -98.5454,-32.2311 -6.03308,2.38465 -12.9366,5.15433 -21.2965,8.563 -8.94686,3.64843 -17.6776,7.32875 -26.1,11.0705 -46.8898,-21.1689 -47.4744,-21.9792 -67.6938,-30.8315l-1.34055 -0.633071c-2.78386,-1.31339 -5.57245,-2.61142 -8.3693,-3.89646 17.7532,-8.08229 37.2437,-16.5933 40.9158,-18.1937l-0.00826772 -0.0177165c13.0559,-6.06733 25.8697,-11.5595 38.5961,-16.7492 8.31733,-3.39095 22.9016,-9.0319 38.8548,-15.1642l17.1177 -6.58229 14.2571 11.4567c25.5732,20.55 49.715,29.8866 72.613,29.4579 22.9264,-0.42874 46.376,-10.7646 70.2721,-29.5323l14.4673 -11.3634 17.1579 6.86339 0.0177165 0.00708662 -0.0236221 0.0590552c26.6788,10.2685 52.8355,20.3492 77.1993,31.8414l-0.00236221 0.00590552c6.64607,2.89961 49.5272,21.6508 65.5312,29.8677l-0.0401575 0.0791339c3.03425,1.54488 6.38623,3.42402 6.39922,3.43229l1.12559 0.625985c13.839,9.07205 28.1953,32.4485 28.2366,32.5146l2.1248 4.0004c1.28504,2.94567 2.37402,5.79922 3.22323,8.52402 0.826772,2.65394 1.51417,5.28544 2.03858,7.8815 4.36654,14.1213 10.9264,35.7662 16.2225,54.2729 3.82323,13.3583 7.65591,27.4583 10.7504,40.2378 0.767717,2.54528 1.34173,4.63465 1.65591,6.08623 0.484252,2.23583 0.891733,4.64646 1.18819,7.22481l-0.0755906 0.00826772 0.184252 1.36536 -0.544489 -1.32402 -0.131102 0.0153543 0.296457 1.51417 0.402756 -0.046063 0.0212599 0.122835 -0.400394 0.0437008 1.82244 9.31182c0,22.4138 -8.5252,42.8599 -22.3158,57.8067 -14.4567,15.6638 -34.5555,25.3477 -56.8867,25.3477l-249.725 0c-4.55552,-17.1142 -8.8689,-34.2851 -13.7445,-51.3201 -1.20945,-4.22481 -2.46851,-8.45198 -3.75945,-12.6815l267.229 0c3.76063,0 7.26497,-1.7563 9.88583,-4.59567 2.71654,-2.94567 4.57678,-6.96851 5.1378,-11.5913 -0.328347,-1.82717 -0.522048,-3.51733 -0.715749,-5.2004l0 -0.125197c-0.183071,-1.62756 -0.00236221,-0.399213 0.0614174,-0.00708662l0.0106299 -0.0011811 -0.12874 -1.01811 -0.125197 -0.375591zm-35.8146 -113.867c-0.00236221,-0.0011811 3.02126,0.809056 1.39016,0.237402l-1.21417 -0.531496 -0.175984 0.294095zm98.6398 106.128l0.0354331 0.178347 0.0543308 -0.00708662c-0.322441,-0.793701 -0.530315,-1.30748 -0.0897638,-0.17126zm0.807875 2.02205l0.0248032 -0.00354331 -0.00472441 -0.0543308 -0.0437008 -0.101575 0.0236221 0.159449zm0.0248032 -0.00354331l0.0106299 -0.0011811 0.0141732 0.124016 -0.0177165 0.00236221 -0.00708662 -0.125197zm0.0106299 -0.0011811l0.0106299 -0.0011811 -0.0141732 -0.0283465 0.00354331 0.0295276zm0.0106299 -0.0011811l0.00354331 0c0,0.00354331 -0.0011811,0.00354331 -0.00354331,0zm-0.0141732 -0.0283465l-0.011811 -0.0236221c-0.0165354,-0.205512 -0.0401575,-0.434646 0.011811,0.0236221zm-63.4217 7.14567c0.0200788,0.125197 0.0295276,0.162992 0.0106299,-0.0011811l-0.0106299 0.0011811zm63.4111 -6.98859c0.00826772,0.0354331 0.0106299,0.0283465 0.0106299,-0.0011811l-0.0106299 0.0011811z"/>
   <path id="_393451576" class="fil1" d="M1504 657.407c44.687,0 85.1493,18.1169 114.438,47.4059 29.289,29.289 47.4059,69.7512 47.4059,114.438 0,44.687 -18.1169,85.1481 -47.4059,114.438 -29.289,29.289 -69.7512,47.4059 -114.438,47.4059 -44.687,0 -85.1481,-18.1169 -114.437,-47.4059 -29.289,-29.289 -47.4059,-69.7512 -47.4059,-114.438 0,-44.687 18.1169,-85.1493 47.4059,-114.438 29.289,-29.289 69.7501,-47.4059 114.437,-47.4059zm69.1878 92.6564c-17.7036,-17.7036 -42.1666,-28.6547 -69.1878,-28.6547 -27.0213,0 -51.4831,10.9512 -69.1867,28.6547 -17.7036,17.7036 -28.6547,42.1666 -28.6547,69.1878 0,27.0213 10.9512,51.4843 28.6547,69.1878 17.7036,17.7036 42.1654,28.6547 69.1867,28.6547 27.0213,0 51.4843,-10.9512 69.1878,-28.6547 17.7036,-17.7047 28.6547,-42.1666 28.6547,-69.1878 0,-27.0213 -10.9512,-51.4843 -28.6547,-69.1878z"/>
   <path id="_393447256" class="fil1" d="M683.318 1062.06c-14.4886,-6.41575 -28.9689,-12.215 -43.5709,-17.8961 -30.1406,20.3717 -61.3737,31.5355 -93.867,32.1437 -32.8807,0.616536 -65.7284,-9.66142 -98.5454,-32.2299 -6.03189,2.38583 -12.9354,5.15315 -21.2977,8.56182 -12.4488,5.07638 -24.4807,10.2154 -35.8453,15.4973l-0.624804 0.250394c-0.135827,0.0590552 -45.9248,19.9878 -61.5827,27.8091 -0.415748,0.239764 -0.836221,0.477166 -1.2626,0.712205 -2.53583,2.35984 -6.53504,6.21024 -7.97599,8.32205 -0.557481,1.57795 -1.44685,4.11614 -1.50236,4.43032l-0.875198 3.75c-4.40552,14.5689 -11.3528,37.5461 -13.7114,45.6449 -5.09764,17.5028 -10.1917,35.6032 -13.3264,48.437l-0.500788 1.87559c-0.0496063,0.161811 -0.174803,0.694489 -0.390945,1.69488 -0.102756,0.477166 -0.172441,0.829134 -0.19252,1.00866l-0.125197 0.500788c-0.0129921,0.103937 -0.0555119,0.694489 -0.119291,1.69252l-0.0011811 1.9311c0,5.863 2.03032,10.9973 5.31378,14.5559 2.61969,2.83937 6.12048,4.59685 9.87875,4.59685l262.935 0c-6.15355,21.2658 -11.7815,42.652 -17.6126,64.0016l-245.322 0c-22.3288,0 -42.4276,-9.68268 -56.8796,-25.3488 -13.7906,-14.9469 -22.3146,-35.3918 -22.3146,-57.8056 0,-1.29095 0.0850394,-3.29055 0.251575,-5.93032 0.0933072,-1.45984 0.276378,-3.27756 0.553937,-5.43662l-0.0590552 -0.00708662c0.297638,-2.5878 0.7063,-5.01142 1.1941,-7.25906 0.386221,-1.78228 0.968505,-3.92008 1.69252,-6.29764 3.35197,-13.5543 8.56536,-32.0717 13.7752,-49.9595 7.70552,-26.4508 11.2748,-38.3303 13.3913,-45.3343 1.49882,-6.46063 4.13504,-13.2272 4.14213,-13.2496l0.875198 -1.99961c6.83977,-15.7512 26.5571,-33.5327 26.6126,-33.5823l2.62559 -2.1248c1.91221,-1.37008 3.73229,-2.36339 5.55,-3.34961l0.115748 0.21378 2.94449 -1.76575c16.2543,-8.33268 60.0863,-27.4748 65.7863,-29.9587l-0.00826772 -0.0177165c13.0547,-6.06733 25.8685,-11.5595 38.5949,-16.7492 8.3126,-3.38859 22.898,-9.02953 38.8559,-15.1642l17.1189 -6.58229 14.2559 11.4567c25.5732,20.55 49.715,29.8866 72.613,29.4579 22.9252,-0.42874 46.3748,-10.7634 70.2721,-29.5323l14.4685 -11.3634 17.1567 6.86339 0.0177165 0.00708662 -0.0236221 0.0590552c26.6788,10.2685 52.8355,20.3492 77.1993,31.8414l-0.00236221 0.00590552c4.07244,1.77638 21.7453,9.50316 38.5051,17.1118 -3.09213,1.40197 -6.17835,2.81811 -9.25749,4.24961l-2.0941 0.973229c-16.2236,7.00749 -32.6079,13.6122 -48.8055,20.7803 -6.13111,2.71299 -12.5669,5.53701 -18.9992,8.50749zm-389.931 -19.3807l1.2815 -0.768898 -0.0649607 -0.119291c0.0295276,-0.0153543 -0.721654,0.531496 -1.21654,0.88819zm32.3138 54.789l-0.596457 0.323622 0 0.121654c0.0377953,-0.034252 0.296457,-0.225591 0.596457,-0.445276z"/>
   <path id="_393447688" class="fil1" d="M544 657.407c44.687,0 85.1493,18.1169 114.438,47.4059 29.289,29.289 47.4059,69.7512 47.4059,114.438 0,44.687 -18.1169,85.1481 -47.4059,114.438 -29.2902,29.289 -69.7512,47.4059 -114.438,47.4059 -44.687,0 -85.1481,-18.1169 -114.437,-47.4059 -29.289,-29.289 -47.4059,-69.7512 -47.4059,-114.438 0,-44.687 18.1169,-85.1493 47.4059,-114.438 29.289,-29.289 69.7501,-47.4059 114.437,-47.4059zm69.1878 92.6564c-17.7036,-17.7036 -42.1666,-28.6547 -69.1878,-28.6547 -27.0213,0 -51.4831,10.9512 -69.1867,28.6547 -17.7036,17.7036 -28.6547,42.1666 -28.6547,69.1878 0,27.0213 10.9512,51.4843 28.6547,69.1878 17.7036,17.7036 42.1654,28.6547 69.1867,28.6547 27.0213,0 51.4831,-10.9512 69.1878,-28.6547 17.7036,-17.7047 28.6547,-42.1666 28.6547,-69.1878 0,-27.0213 -10.9512,-51.4843 -28.6547,-69.1878z"/>
  </g>
 </g>
</svg>
