<?xml version="1.0" encoding="UTF-8"?>
<svg version="1.1" xmlns="http://www.w3.org/2000/svg" width="512" height="512">
<path d="M0 0 C0.76570313 0.66386719 1.53140625 1.32773437 2.3203125 2.01171875 C3.12726563 2.68589844 3.93421875 3.36007813 4.765625 4.0546875 C27.64371555 23.74132028 41.97179744 51.2595541 46.3203125 81.01171875 C48.59572571 123.45052903 37.34475654 160.11566686 8.8203125 192.19921875 C8.13340332 192.93285645 7.44649414 193.66649414 6.73876953 194.42236328 C5.16501424 196.1073268 3.6039306 197.8042457 2.05786133 199.51464844 C-7.44932682 209.98768312 -17.43620015 219.99017138 -27.42651367 229.9987793 C-29.99952148 232.57733193 -32.56306274 235.16509484 -35.12469959 237.75493717 C-37.12290076 239.77181098 -39.12782647 241.78189783 -41.13461876 243.79022026 C-42.53901811 245.19906299 -43.93633172 246.61495791 -45.33345032 248.03102112 C-51.78039823 254.45551512 -56.99283027 259.5716721 -66.5546875 259.63671875 C-73.4342416 259.42447719 -77.76935456 257.83571616 -82.6796875 253.01171875 C-87.24834649 247.66304481 -87.20210063 242.60099851 -87.40625 235.70703125 C-85.4373899 225.69336643 -76.6641652 218.63586496 -69.64016151 211.77726364 C-67.75121855 209.93186857 -65.8727859 208.07631277 -63.99662781 206.21792603 C-58.66504451 200.94087855 -53.31381413 195.68388695 -47.96020508 190.42919922 C-44.67016578 187.1985536 -41.39052716 183.95761474 -38.11626244 180.71098709 C-36.29040087 178.90687448 -34.45309749 177.11503211 -32.61506653 175.32333374 C-12.35749509 155.36461395 4.25340255 129.67286161 4.70117188 100.41210938 C4.65894699 78.60999554 -0.56880329 59.36385416 -15.6796875 43.01171875 C-16.5253125 42.08617188 -17.3709375 41.160625 -18.2421875 40.20703125 C-24.17053535 33.99237115 -30.18081583 29.18008596 -37.6796875 25.01171875 C-38.60265625 24.47804687 -39.525625 23.944375 -40.4765625 23.39453125 C-59.21219695 13.21652443 -82.3149811 11.75831338 -102.71875 17.68359375 C-128.86076315 26.10813939 -147.78976854 43.64569226 -166.81640625 62.71484375 C-168.63056521 64.52442947 -170.44509158 66.33364691 -172.25996399 68.14251709 C-176.04268191 71.91635286 -179.81986444 75.69561388 -183.59301758 79.47900391 C-187.9177721 83.81523426 -192.25515349 88.13852786 -196.5990178 92.45560765 C-200.82509309 96.65662498 -205.03971166 100.86900505 -209.25007057 105.08577728 C-211.02136146 106.85722006 -212.7956981 108.62562344 -214.57330894 110.39072418 C-236.97431325 132.65616273 -257.55433743 158.53164167 -258.06054688 191.61132812 C-258.01824648 213.45243423 -252.76668903 232.6067078 -237.6796875 249.01171875 C-236.60847656 250.22021484 -236.60847656 250.22021484 -235.515625 251.453125 C-230.00834865 257.33799053 -223.95907905 261.83048021 -217.21289062 266.16967773 C-212.10733725 269.49566323 -207.86436683 273.13073852 -205.6796875 279.01171875 C-204.82141728 286.64633178 -204.8318499 292.88813442 -209.6796875 299.01171875 C-214.31860898 303.75231522 -219.14645191 306.27321479 -225.8046875 306.51171875 C-241.35712584 306.15778106 -256.20708585 290.589518 -266.6796875 280.01171875 C-291.2902094 254.02775897 -300.98014013 221.84647753 -300.05859375 186.72265625 C-298.90909623 153.17529976 -282.77472573 121.83741574 -260.12994385 97.6333313 C-257.99070083 95.34448248 -255.87591228 93.03522526 -253.76485062 90.72044563 C-246.39436812 82.66451798 -238.73430475 74.91993462 -231.0078125 67.20703125 C-229.63150759 65.83005035 -228.25535095 64.45292123 -226.8793335 63.07565308 C-224.02029421 60.2151532 -221.1594893 57.35643473 -218.29736328 54.49902344 C-214.64728953 50.85467321 -211.00176195 47.20581341 -207.3575325 43.55562019 C-204.52649165 40.72095228 -201.69305684 37.88868689 -198.85890961 35.05712509 C-197.51389147 33.71276889 -196.16960146 32.36768377 -194.82608795 31.02182388 C-188.28238955 24.46919425 -181.75936847 17.99159911 -174.6796875 12.01171875 C-173.34516571 10.76298765 -172.0115877 9.51324567 -170.6796875 8.26171875 C-153.10936816 -7.26972395 -132.12807637 -17.66687409 -109.6796875 -23.98828125 C-108.43960938 -24.34921875 -107.19953125 -24.71015625 -105.921875 -25.08203125 C-69.40402528 -33.75000437 -28.61402452 -24.03389188 0 0 Z " fill="#000000" transform="translate(465.6796875,26.98828125)"/>
<path d="M0 0 C28.43629275 17.51038892 49.46613658 45.2010339 57.5078125 77.703125 C65.73718435 113.31453235 58.06232182 150.0070431 39.0703125 180.890625 C33.5659828 189.19265503 27.32456387 196.99649947 20.52056885 204.26901245 C18.38132583 206.55786127 16.26653728 208.86711849 14.15547562 211.18189812 C6.78499312 219.23782577 -0.87507025 226.98240913 -8.6015625 234.6953125 C-9.97786741 236.0722934 -11.35402405 237.44942252 -12.7300415 238.82669067 C-15.58908079 241.68719055 -18.4498857 244.54590902 -21.31201172 247.40332031 C-24.96208547 251.04767054 -28.60761305 254.69653034 -32.2518425 258.34672356 C-35.08288335 261.18139147 -37.91631816 264.01365686 -40.75046539 266.84521866 C-42.09548353 268.18957486 -43.43977354 269.53465998 -44.78328705 270.88051987 C-51.32698545 277.4331495 -57.85000653 283.91074464 -64.9296875 289.890625 C-66.26420929 291.1393561 -67.5977873 292.38909808 -68.9296875 293.640625 C-86.49530312 309.1679098 -107.48230744 319.58119087 -129.9296875 325.890625 C-131.18136719 326.2515625 -132.43304688 326.6125 -133.72265625 326.984375 C-164.30093894 334.18711116 -198.25492878 328.34335317 -225.0546875 312.390625 C-231.05597359 308.67316167 -236.59906661 304.51229126 -241.9296875 299.890625 C-242.73664063 299.21644531 -243.54359375 298.54226563 -244.375 297.84765625 C-266.47469081 278.83083767 -283.15338912 250.21045669 -285.9296875 220.890625 C-288.41527962 179.63978251 -277.52565562 143.88019678 -250.58984375 112.1328125 C-249.19538715 110.56436403 -247.78255742 109.01197246 -246.34814453 107.47998047 C-244.77438924 105.79501695 -243.2133056 104.09809805 -241.66723633 102.38769531 C-232.16004818 91.91466063 -222.17317485 81.91217237 -212.18286133 71.90356445 C-209.60985352 69.32501182 -207.04631226 66.73724891 -204.48467541 64.14740658 C-202.48647424 62.13053277 -200.48154853 60.12044592 -198.47475624 58.11212349 C-197.07035689 56.70328076 -195.67304328 55.28738584 -194.27592468 53.87132263 C-187.82897677 47.44682863 -182.61654473 42.33067165 -173.0546875 42.265625 C-166.1751334 42.47786656 -161.84002044 44.06662759 -156.9296875 48.890625 C-152.36102851 54.23929894 -152.40727437 59.30134524 -152.203125 66.1953125 C-154.1719851 76.20897732 -162.9452098 83.26647879 -169.96921349 90.12508011 C-171.85815645 91.97047518 -173.7365891 93.82603098 -175.61274719 95.68441772 C-180.94433049 100.9614652 -186.29556087 106.2184568 -191.64916992 111.47314453 C-194.93920922 114.70379015 -198.21884784 117.94472901 -201.49311256 121.19135666 C-203.31897413 122.99546927 -205.15627751 124.78731164 -206.99430847 126.57901001 C-227.25187991 146.5377298 -243.86277755 172.22948214 -244.31054688 201.49023438 C-244.26832199 223.29234821 -239.04057171 242.53848959 -223.9296875 258.890625 C-222.66125 260.27894531 -222.66125 260.27894531 -221.3671875 261.6953125 C-215.43883965 267.9099726 -209.42855917 272.72225779 -201.9296875 276.890625 C-201.00671875 277.42429687 -200.08375 277.95796875 -199.1328125 278.5078125 C-181.82174947 287.91193053 -160.4902258 290.08651875 -141.3671875 285.265625 C-138.87175962 284.52681302 -136.39118911 283.73561809 -133.9296875 282.890625 C-133.29772461 282.67631836 -132.66576172 282.46201172 -132.01464844 282.24121094 C-107.90887743 273.88989239 -90.39035678 256.81988779 -72.7578125 239.1171875 C-70.94133376 237.30273507 -69.12441035 235.4887277 -67.30706787 233.67514038 C-63.520297 229.8927655 -59.73879286 226.10524005 -55.96142578 222.31347656 C-51.62716224 217.96288271 -47.28218325 213.62321567 -42.9315083 209.2890383 C-38.70225199 205.07516312 -34.48163105 200.8527539 -30.26442719 196.62681198 C-28.48862835 194.84902927 -26.7106466 193.07342397 -24.930336 191.30015945 C-7.65851105 174.08205724 -7.65851105 174.08205724 5.8828125 153.890625 C6.24971191 153.22184326 6.61661133 152.55306152 6.99462891 151.86401367 C10.27940655 145.74304355 12.94209069 139.50897753 15.0703125 132.890625 C15.38871094 131.96121094 15.70710938 131.03179687 16.03515625 130.07421875 C20.59557499 114.29138709 19.86387353 95.19401153 14.0703125 79.890625 C13.7196875 78.94832031 13.3690625 78.00601563 13.0078125 77.03515625 C5.59581515 59.20003762 -6.3751402 45.94186474 -22.49829102 35.63012695 C-27.58016729 32.34988613 -31.76190934 28.72610864 -33.9296875 22.890625 C-34.78795772 15.25601197 -34.7775251 9.01420933 -29.9296875 2.890625 C-20.83145823 -6.40701751 -10.90381589 -5.96781739 0 0 Z " fill="#000000" transform="translate(285.9296875,183.109375)"/>
</svg>
